<?xml version="1.0" encoding="UTF-8" standalone="no"?>
<!-- Created with Inkscape (http://www.inkscape.org/) -->

<svg
   xmlns:dc="http://purl.org/dc/elements/1.1/"
   xmlns:cc="http://creativecommons.org/ns#"
   xmlns:rdf="http://www.w3.org/1999/02/22-rdf-syntax-ns#"
   xmlns:svg="http://www.w3.org/2000/svg"
   xmlns="http://www.w3.org/2000/svg"
   xmlns:sodipodi="http://sodipodi.sourceforge.net/DTD/sodipodi-0.dtd"
   xmlns:inkscape="http://www.inkscape.org/namespaces/inkscape"
   width="96"
   height="96"
   viewBox="0 0 25.399999 25.400001"
   version="1.1"
   id="svg8"
   inkscape:version="0.92.3 (2405546, 2018-03-11)"
   sodipodi:docname="neutron-disabled.svg">
  <defs
     id="defs2" />
  <sodipodi:namedview
     id="base"
     pagecolor="#ffffff"
     bordercolor="#666666"
     borderopacity="1.0"
     inkscape:pageopacity="0.0"
     inkscape:pageshadow="2"
     inkscape:zoom="0.45014485"
     inkscape:cx="139.08408"
     inkscape:cy="-4.8532666"
     inkscape:document-units="mm"
     inkscape:current-layer="layer1"
     showgrid="false"
     units="px"
     inkscape:window-width="1320"
     inkscape:window-height="710"
     inkscape:window-x="46"
     inkscape:window-y="0"
     inkscape:window-maximized="1" />
  <metadata
     id="metadata5">
    <rdf:RDF>
      <cc:Work
         rdf:about="">
        <dc:format>image/svg+xml</dc:format>
        <dc:type
           rdf:resource="http://purl.org/dc/dcmitype/StillImage" />
        <dc:title></dc:title>
      </cc:Work>
    </rdf:RDF>
  </metadata>
  <g
     inkscape:label="Layer 1"
     inkscape:groupmode="layer"
     id="layer1"
     transform="translate(0,-271.59998)">
    <circle
       style="color:#000000;clip-rule:nonzero;display:inline;overflow:visible;visibility:visible;opacity:1;isolation:auto;mix-blend-mode:normal;color-interpolation:sRGB;color-interpolation-filters:linearRGB;solid-color:#000000;solid-opacity:1;fill:#dc4747;fill-opacity:1;fill-rule:nonzero;stroke:#000000;stroke-width:2;stroke-linecap:butt;stroke-linejoin:round;stroke-miterlimit:4;stroke-dasharray:4, 4;stroke-dashoffset:0;stroke-opacity:1;color-rendering:auto;image-rendering:auto;shape-rendering:auto;text-rendering:auto;enable-background:accumulate"
       id="path815"
       cx="12.7"
       cy="284.29999"
       r="9.9891987" />
    <g
       aria-label="N"
       transform="matrix(0.26458333,0,0,0.26458333,2.102542,240.72751)"
       style="font-style:normal;font-variant:normal;font-weight:normal;font-stretch:normal;font-size:53.33333206px;line-height:100%;font-family:sans-serif;-inkscape-font-specification:sans-serif;letter-spacing:0px;word-spacing:0px;fill:#333333;fill-opacity:1;stroke:none;stroke-width:1px;stroke-linecap:butt;stroke-linejoin:miter;stroke-opacity:1"
       id="flowRoot817">
      <path
         d="m 23.25651,180.69896 v -2.16146 q 1.901042,-0.23438 2.708334,-0.72917 0.807291,-0.49479 0.807291,-0.85937 v -24.94792 q -0.833333,-0.78125 -1.744791,-1.30208 -0.885417,-0.52084 -1.770834,-0.65104 v -2.16146 h 7.864584 q 0.390625,0 0.625,0.0781 0.260416,0.0521 0.520833,0.26042 0.260417,0.20833 0.546875,0.625 0.3125,0.39062 0.807291,1.06771 l 15.546875,21.58854 V 151.6625 q 0,-0.15625 -0.15625,-0.36458 -0.15625,-0.23438 -0.572917,-0.44271 -0.390625,-0.23438 -1.067708,-0.44271 -0.677083,-0.20833 -1.71875,-0.36458 v -2.16146 H 56.85026 v 2.16146 q -1.875,0.26041 -2.708334,0.7552 -0.807291,0.4948 -0.807291,0.85938 v 29.81771 q -1.432292,-0.10417 -2.604167,-0.41667 -1.145833,-0.28646 -2.057292,-0.70312 -0.885416,-0.41667 -1.536458,-0.9375 -0.651041,-0.52084 -1.067708,-1.09375 l -15.130208,-20.9375 v 19.55729 q 0,0.15625 0.15625,0.39062 0.182292,0.20834 0.598958,0.44271 0.416667,0.20833 1.067708,0.41667 0.677084,0.20833 1.692709,0.33854 v 2.16146 z"
         style="font-style:normal;font-variant:normal;font-weight:bold;font-stretch:normal;font-family:'Gentium Book Basic';-inkscape-font-specification:'Gentium Book Basic Bold';fill:#333333"
         id="path825"
         inkscape:connector-curvature="0" />
    </g>
  </g>
</svg>
